//30 152 152 #1e9898
<svg version="1.1" xmlns="http://www.w3.org/2000/svg" xmlns:xlink="http://www.w3.org/1999/xlink" 
width="current" height="current" viewBox="60 -200 400 600">
<g data-paper-data="{&quot;description&quot;:&quot;Logo for KNU CLIMBING\n=====================\n\nThis logo was generated by MarkMaker at http://emblemmatic.org/markmaker/ and may be composed of elements designed by others.\n\nThe font is Sniglet Regular designed by Multiple Designers and released under the OFL license via Google Fonts: https://www.google.com/fonts/specimen/Sniglet. The font includes this copyright statement: Copyright (c) 2008, Haley Fiege (haley@kingdomofawesome.com), Copyright (c) 2012, Brenda Gallo (gbrenda1987@gmail.com) Copyright (c) 2013, Pablo Impallari (www.impallari.com|impallari@gmail.com), with no Reserved Font Name.\n\nMarkMaker uses semantic data from the Princeton University WordNet database http://wordnet.princeton.edu and font descriptions from Google Fonts https://www.google.com/fonts.&quot;}" fill="none" fill-rule="nonzero" stroke="none" stroke-width="none" stroke-linecap="butt" stroke-linejoin="miter" stroke-miterlimit="10" stroke-dasharray="" stroke-dashoffset="0" font-family="none" font-weight="none" font-size="none" text-anchor="none" style="mix-blend-mode: normal">
<path d="M50,344.48935v-188.9787h400v188.9787z" fill="current" stroke="#1e9898" stroke-width="3.5"></path>
<g data-paper-data="{&quot;elementType&quot;:&quot;logo&quot;}" fill="#1e9898" stroke="none" stroke-width="1"><g data-paper-data="{&quot;elementType&quot;:&quot;text&quot;}"><g data-paper-data="{&quot;baseline&quot;:70.5}"><g data-paper-data="{&quot;baselineProportion&quot;:0.9764542936288089,&quot;fontSize&quot;:100,&quot;baseline&quot;:70.5,&quot;elementType&quot;:&quot;word&quot;}"><path d="M83.68525,234.10018c-0.09384,-1.68919 -0.1525,-3.44876 -0.17596,-5.27872c-0.02346,-1.82995 -0.05865,-3.80068 -0.10557,-5.91216c-0.04692,-2.11149 -0.07038,-4.39893 -0.07038,-6.86233c0,-2.4634 0,-5.22006 0,-8.26999c0,-3.33146 0.02346,-6.18196 0.07038,-8.55152c0.04692,-2.36956 0.17596,-4.30509 0.38711,-5.80659c0.21115,-1.5015 0.55133,-2.60417 1.02055,-3.308c0.46922,-0.70383 1.12613,-1.05574 1.97072,-1.05574c0.79767,0 1.5015,0.25807 2.11149,0.77421c0.60998,0.51614 0.9619,1.71265 1.05574,3.58953c0.09384,1.68919 0.16423,3.19069 0.21115,4.5045c0.04692,1.31381 0.09384,2.6159 0.14077,3.90625c0.04692,1.29035 0.07038,2.62763 0.07038,4.01182c0,1.3842 0,2.94435 0,4.68046v3.65991l15.06194,-17.24381c1.97072,-2.25225 3.49568,-3.74202 4.57489,-4.46931c1.0792,-0.72729 2.01764,-1.09093 2.81532,-1.09093c0.93844,0 1.63054,0.23461 2.0763,0.70383c0.44576,0.46922 0.66864,1.05574 0.66864,1.75957c0,0.28153 -0.04692,0.56306 -0.14077,0.84459c-0.09384,0.28153 -0.29326,0.66864 -0.59825,1.16132c-0.30499,0.49268 -0.76248,1.10267 -1.37247,1.82995c-0.60998,0.72729 -1.43112,1.654 -2.4634,2.78012l-9.78322,10.62782l15.41385,21.95946c0.37538,0.51614 0.66864,1.05574 0.87979,1.61881c0.21115,0.56306 0.31672,1.10267 0.31672,1.61881c0,0.89152 -0.24634,1.63054 -0.73902,2.21706c-0.49268,0.58652 -1.34901,0.87979 -2.56898,0.87979c-0.98536,0 -1.86515,-0.2698 -2.63936,-0.8094c-0.77421,-0.5396 -1.48977,-1.32554 -2.14668,-2.35783l-13.37275,-19.77759l-6.05293,6.61599c-0.04692,1.78303 -0.09384,3.56607 -0.14077,5.3491c-0.04692,1.78303 -0.1173,3.65991 -0.21115,5.63063c-0.04692,1.12613 -0.1525,1.99418 -0.31672,2.60417c-0.16423,0.60998 -0.38711,1.0792 -0.66864,1.40766c-0.28153,0.32845 -0.59825,0.52787 -0.95017,0.59825c-0.35191,0.07038 -0.76248,0.10557 -1.2317,0.10557c-0.84459,0 -1.54842,-0.29326 -2.11149,-0.87979c-0.56306,-0.58652 -0.89152,-1.84169 -0.98536,-3.76548z" data-paper-data="{&quot;elementType&quot;:&quot;letter&quot;,&quot;baseline&quot;:70.2,&quot;baselineProportion&quot;:0.9818181818181818,&quot;fontSize&quot;:100}"></path><path d="M158.36149,235.15592c-1.5015,-2.06456 -2.92089,-4.1174 -4.25816,-6.1585c-1.33727,-2.0411 -2.76839,-4.28163 -4.29336,-6.72157c-1.52496,-2.43994 -3.26107,-5.14968 -5.20833,-8.12922c-1.94726,-2.97954 -4.28163,-6.46349 -7.0031,-10.45186c0,3.51914 0,6.67464 0,9.4665c0,2.79185 -0.02346,5.38429 -0.07038,7.77731c-0.04692,2.39302 -0.09384,4.64527 -0.14077,6.75676c-0.04692,2.11149 -0.1173,4.22297 -0.21115,6.33446c-0.04692,1.12613 -0.1525,1.99418 -0.31672,2.60417c-0.16423,0.60998 -0.38711,1.0792 -0.66864,1.40766c-0.28153,0.32845 -0.59825,0.52787 -0.95017,0.59825c-0.35191,0.07038 -0.76248,0.10557 -1.2317,0.10557c-0.84459,0 -1.54842,-0.29326 -2.11149,-0.87979c-0.56306,-0.58652 -0.89152,-1.84169 -0.98536,-3.76548c-0.23461,-5.16141 -0.36364,-10.33455 -0.38711,-15.51943c-0.02346,-5.18487 -0.03519,-10.5457 -0.03519,-16.08249c0,-3.14377 0.03519,-5.60717 0.10557,-7.3902c0.07038,-1.78303 0.23461,-3.12031 0.49268,-4.01182c0.25807,-0.89152 0.60998,-1.45458 1.05574,-1.68919c0.44576,-0.23461 1.04401,-0.35191 1.79476,-0.35191c0.75075,0 1.73611,0.57479 2.95608,1.72438c1.21997,1.14959 2.55724,2.66282 4.01182,4.5397c1.45458,1.87688 3.01473,4.03529 4.68046,6.47523c1.66573,2.43994 3.31973,4.95026 4.96199,7.53097c1.64227,2.58071 3.22588,5.13795 4.75084,7.67173c1.52496,2.53378 2.92089,4.83296 4.18778,6.89752c-0.04692,-2.20533 -0.07038,-4.63354 -0.07038,-7.28463c0,-2.65109 0,-5.59544 0,-8.83305c0,-3.70683 0.02346,-6.76849 0.07038,-9.18497c0.04692,-2.41648 0.17596,-4.32855 0.38711,-5.7362c0.21115,-1.40766 0.55133,-2.39302 1.02055,-2.95608c0.46922,-0.56306 1.12613,-0.84459 1.97072,-0.84459c0.79767,0 1.5015,0.25807 2.11149,0.77421c0.60998,0.51614 0.9619,1.71265 1.05574,3.58953c0.09384,1.68919 0.16423,3.19069 0.21115,4.5045c0.04692,1.31381 0.09384,2.6159 0.14077,3.90625c0.04692,1.29035 0.07038,2.62763 0.07038,4.01182c0,1.3842 0,2.94435 0,4.68046c0,2.11149 0,4.12913 0,6.05293c0,1.9238 -0.02346,3.82414 -0.07038,5.70101c-0.04692,1.87688 -0.09384,3.77721 -0.14077,5.70101c-0.04692,1.9238 -0.1173,3.94144 -0.21115,6.05293c-0.04692,1.12613 -0.1525,1.99418 -0.31672,2.60417c-0.16423,0.60998 -0.38711,1.0792 -0.66864,1.40766c-0.28153,0.32845 -0.59825,0.52787 -0.95017,0.59825c-0.35191,0.07038 -0.76248,0.10557 -1.2317,0.10557c-0.79767,0 -1.47804,-0.23461 -2.0411,-0.70383c-0.56306,-0.46922 -1.3842,-1.43112 -2.4634,-2.8857z" data-paper-data="{&quot;elementType&quot;:&quot;letter&quot;,&quot;baseline&quot;:70.2,&quot;baselineProportion&quot;:0.9943342776203965,&quot;fontSize&quot;:100}"></path><path d="M198.90203,239.66042c-5.3491,0 -9.26708,-1.45458 -11.75394,-4.36374c-0.98536,-1.12613 -1.81822,-2.56898 -2.49859,-4.32855c-0.68037,-1.75957 -1.21997,-4.04702 -1.61881,-6.86233c-0.39884,-2.81532 -0.68037,-6.29927 -0.84459,-10.45186c-0.16423,-4.15259 -0.24634,-9.20843 -0.24634,-15.16751c0,-1.9238 0.04692,-3.50741 0.14077,-4.75084c0.09384,-1.24343 0.28153,-2.22879 0.56306,-2.95608c0.28153,-0.72729 0.64518,-1.2317 1.09093,-1.51323c0.44576,-0.28153 1.02055,-0.4223 1.72438,-0.4223c1.36074,0 2.32264,0.60998 2.8857,1.82995c0.56306,1.21997 0.84459,3.33146 0.84459,6.33446c0,1.03228 -0.01173,1.94726 -0.03519,2.74493c-0.02346,0.79767 -0.03519,1.60708 -0.03519,2.42821c0,0.82113 -0.01173,1.72438 -0.03519,2.70974c-0.02346,0.98536 -0.03519,2.18187 -0.03519,3.58953c0,4.69219 0.1525,8.58671 0.45749,11.68356c0.30499,3.09685 0.83286,5.57198 1.58361,7.42539c0.75075,1.85342 1.7713,3.1555 3.06166,3.90625c1.29035,0.75075 2.89743,1.12613 4.82123,1.12613c2.01764,0 3.6951,-0.41057 5.03238,-1.2317c1.33727,-0.82113 2.40475,-2.20533 3.20242,-4.15259c0.79767,-1.94726 1.37247,-4.5397 1.72438,-7.77731c0.35191,-3.23761 0.52787,-7.2729 0.52787,-12.10586c0,-2.11149 -0.01173,-3.91798 -0.03519,-5.41948c-0.02346,-1.5015 -0.03519,-2.86224 -0.03519,-4.08221c0,-1.73611 0.05865,-3.19069 0.17596,-4.36374c0.1173,-1.17305 0.30499,-2.09976 0.56306,-2.78012c0.25807,-0.68037 0.62172,-1.16132 1.09093,-1.44285c0.46922,-0.28153 1.05574,-0.4223 1.75957,-0.4223c0.70383,0 1.29035,0.14077 1.75957,0.4223c0.46922,0.28153 0.84459,0.77421 1.12613,1.47804c0.28153,0.70383 0.46922,1.67746 0.56306,2.92089c0.09384,1.24343 0.14077,2.85051 0.14077,4.82123c0,8.25826 -0.25807,15.05021 -0.77421,20.37584c-0.51614,5.32564 -1.43112,9.52515 -2.74493,12.59854c-1.31381,3.07339 -3.10858,5.20833 -5.38429,6.40484c-2.27571,1.19651 -5.1966,1.79476 -8.76267,1.79476z" data-paper-data="{&quot;elementType&quot;:&quot;letter&quot;,&quot;baseline&quot;:70.5,&quot;baselineProportion&quot;:0.9764542936288089,&quot;fontSize&quot;:100}"></path></g></g><g data-paper-data="{&quot;baseline&quot;:71.5,&quot;elementType&quot;:&quot;row&quot;}"><g data-paper-data="{&quot;baselineProportion&quot;:0.9470198675496688,&quot;fontSize&quot;:100,&quot;baseline&quot;:71.5,&quot;elementType&quot;:&quot;word&quot;}"><path d="M105.22241,258.50962c1.54842,0 3.10858,0.12904 4.68046,0.38711c1.57188,0.25807 2.99127,0.65691 4.25816,1.19651c1.26689,0.5396 2.3109,1.19651 3.13204,1.97072c0.82113,0.77421 1.2317,1.67746 1.2317,2.70974c0,1.0792 -0.28153,1.90034 -0.84459,2.4634c-0.56306,0.56306 -1.26689,0.84459 -2.11149,0.84459c-0.79767,0 -1.5015,-0.12904 -2.11149,-0.38711c-0.60998,-0.25807 -1.30208,-0.55133 -2.0763,-0.87979c-0.77421,-0.32845 -1.70092,-0.62172 -2.78012,-0.87979c-1.0792,-0.25807 -2.51032,-0.38711 -4.29336,-0.38711c-1.78303,0 -3.48395,0.45749 -5.10276,1.37247c-1.61881,0.91498 -3.02646,2.18187 -4.22297,3.80068c-1.19651,1.61881 -2.14668,3.53087 -2.85051,5.7362c-0.70383,2.20533 -1.05574,4.59835 -1.05574,7.17905c0,3.19069 0.41057,5.93562 1.2317,8.2348c0.82113,2.29917 1.88861,4.18778 3.20242,5.66582c1.31381,1.47804 2.80358,2.58071 4.46931,3.308c1.66573,0.72729 3.34319,1.09093 5.03238,1.09093c2.01764,0 3.70683,-0.21115 5.06757,-0.63345c1.36074,-0.4223 2.52205,-0.89152 3.48395,-1.40766c0.9619,-0.51614 1.79476,-0.98536 2.49859,-1.40766c0.70383,-0.4223 1.3842,-0.63345 2.0411,-0.63345c0.79767,0 1.43112,0.22288 1.90034,0.66864c0.46922,0.44576 0.70383,1.2317 0.70383,2.35783c0,0.93844 -0.36364,1.88861 -1.09093,2.85051c-0.72729,0.9619 -1.78303,1.82995 -3.16723,2.60417c-1.3842,0.77421 -3.03819,1.40766 -4.96199,1.90034c-1.9238,0.49268 -4.08221,0.73902 -6.47523,0.73902c-2.62763,0 -5.24352,-0.51614 -7.84769,-1.54842c-2.60417,-1.03228 -4.9268,-2.56898 -6.96791,-4.61008c-2.0411,-2.0411 -3.6951,-4.59835 -4.96199,-7.67173c-1.26689,-3.07339 -1.90034,-6.65118 -1.90034,-10.73339c0,-4.08221 0.57479,-7.71866 1.72438,-10.90935c1.14959,-3.19069 2.72147,-5.90043 4.71565,-8.12922c1.99418,-2.22879 4.31682,-3.92971 6.96791,-5.10276c2.65109,-1.17305 5.47813,-1.75957 8.48114,-1.75957z" data-paper-data="{&quot;elementType&quot;:&quot;letter&quot;,&quot;baseline&quot;:70.8,&quot;baselineProportion&quot;:0.9874476987447698,&quot;fontSize&quot;:100}"></path><path d="M140.97691,288.70388c0,1.5015 0,2.82705 0,3.97663c0,1.14959 -0.01173,2.24052 -0.03519,3.2728c-0.02346,1.03228 -0.05865,2.06456 -0.10557,3.09685c-0.04692,1.03228 -0.09384,2.18187 -0.14077,3.44876c3.23761,-0.37538 5.7714,-0.68037 7.60135,-0.91498c1.82995,-0.23461 3.2728,-0.4223 4.32855,-0.56306c1.05574,-0.14077 1.87688,-0.23461 2.4634,-0.28153c0.58652,-0.04692 1.27862,-0.07038 2.0763,-0.07038c2.06456,0 3.09685,1.00882 3.09685,3.02646c0,0.79767 -0.41057,1.47804 -1.2317,2.0411c-0.82113,0.56306 -1.85342,1.04401 -3.09685,1.44285c-1.24343,0.39884 -2.62763,0.72729 -4.15259,0.98536c-1.52496,0.25807 -3.003,0.44576 -4.43412,0.56306c-1.43112,0.1173 -2.72147,0.19942 -3.87106,0.24634c-1.14959,0.04692 -1.95899,0.07038 -2.42821,0.07038c-1.68919,0 -3.003,-0.10557 -3.94144,-0.31672c-0.93844,-0.21115 -1.64227,-0.84459 -2.11149,-1.90034c-0.46922,-1.05574 -0.76248,-2.66282 -0.87979,-4.82123c-0.1173,-2.15841 -0.17596,-5.20833 -0.17596,-9.14977c0,-3.80068 0,-7.17905 0,-10.13514c0,-2.95608 0.02346,-5.60717 0.07038,-7.95327c0.04692,-2.3461 0.08211,-4.43412 0.10557,-6.26408c0.02346,-1.82995 0.08211,-3.49568 0.17596,-4.99718c0.09384,-1.9238 0.4223,-3.17896 0.98536,-3.76548c0.56306,-0.58652 1.26689,-0.87979 2.11149,-0.87979c0.46922,0 0.87979,0.03519 1.2317,0.10557c0.35191,0.07038 0.66864,0.2698 0.95017,0.59825c0.28153,0.32845 0.50441,0.79767 0.66864,1.40766c0.16423,0.60998 0.2698,1.47804 0.31672,2.60417c0.18769,4.12913 0.30499,8.21134 0.35191,12.24662c0.04692,4.03529 0.07038,8.32864 0.07038,12.88007z" data-paper-data="{&quot;elementType&quot;:&quot;letter&quot;,&quot;baseline&quot;:70.3,&quot;baselineProportion&quot;:0.9859747545582047,&quot;fontSize&quot;:100}"></path><path d="M173.98649,303.97696c-0.09384,-1.68919 -0.1525,-3.44876 -0.17596,-5.27872c-0.02346,-1.82995 -0.05865,-3.80068 -0.10557,-5.91216c-0.04692,-2.11149 -0.07038,-4.39893 -0.07038,-6.86233c0,-2.4634 0,-5.22006 0,-8.26999c0,-3.33146 0.02346,-6.18196 0.07038,-8.55152c0.04692,-2.36956 0.18769,-4.30509 0.4223,-5.80659c0.23461,-1.5015 0.59825,-2.60417 1.09093,-3.308c0.49268,-0.70383 1.16132,-1.05574 2.00591,-1.05574c0.4223,0 0.82113,0.04692 1.19651,0.14077c0.37538,0.09384 0.70383,0.29326 0.98536,0.59825c0.28153,0.30499 0.52787,0.75075 0.73902,1.33727c0.21115,0.58652 0.34018,1.34901 0.38711,2.28744c0.09384,1.68919 0.16423,3.19069 0.21115,4.5045c0.04692,1.31381 0.09384,2.6159 0.14077,3.90625c0.04692,1.29035 0.07038,2.62763 0.07038,4.01182c0,1.3842 0,2.94435 0,4.68046c0,2.11149 0,4.12913 0,6.05293c0,1.9238 -0.02346,3.82414 -0.07038,5.70101c-0.04692,1.87688 -0.09384,3.77721 -0.14077,5.70101c-0.04692,1.9238 -0.1173,3.94144 -0.21115,6.05293c-0.04692,1.12613 -0.16423,1.99418 -0.35191,2.60417c-0.18769,0.60998 -0.4223,1.0792 -0.70383,1.40766c-0.28153,0.32845 -0.60998,0.52787 -0.98536,0.59825c-0.37538,0.07038 -0.79767,0.10557 -1.26689,0.10557c-0.84459,0 -1.57188,-0.29326 -2.18187,-0.87979c-0.60998,-0.58652 -0.9619,-1.84169 -1.05574,-3.76548z" data-paper-data="{&quot;elementType&quot;:&quot;letter&quot;,&quot;baseline&quot;:70.2,&quot;baselineProportion&quot;:0.9943342776203965,&quot;fontSize&quot;:100}"></path><path d="M216.00507,296.37561c-2.15841,-4.73911 -4.07048,-9.32573 -5.7362,-13.75985c-1.66573,-4.43412 -3.08512,-8.38729 -4.25816,-11.85952c-1.0792,5.81832 -1.98245,11.68356 -2.70974,17.59572c-0.72729,5.91216 -1.654,11.56625 -2.78012,16.96227c-0.28153,1.21997 -0.79767,2.02937 -1.54842,2.42821c-0.75075,0.39884 -1.3842,0.59825 -1.90034,0.59825c-0.84459,0 -1.51323,-0.25807 -2.00591,-0.77421c-0.49268,-0.51614 -0.73902,-1.17305 -0.73902,-1.97072c0,-1.0792 0.12904,-2.7332 0.38711,-4.96199c0.25807,-2.22879 0.58652,-4.75084 0.98536,-7.56616c0.39884,-2.81532 0.85633,-5.7714 1.37247,-8.86824c0.51614,-3.09685 1.04401,-6.08812 1.58361,-8.97382c0.5396,-2.8857 1.05574,-5.5016 1.54842,-7.84769c0.49268,-2.3461 0.92671,-4.15259 1.30208,-5.41948c0.60998,-2.15841 1.85342,-3.23761 3.73029,-3.23761c1.12613,0 2.08803,0.55133 2.8857,1.654c0.79767,1.10267 1.654,2.79185 2.56898,5.06757c0.91498,2.27571 2.01764,5.14968 3.308,8.6219c1.29035,3.47222 2.96781,7.55443 5.03238,12.24662c2.01764,-4.69219 3.64818,-8.76267 4.89161,-12.21143c1.24343,-3.44876 2.29917,-6.311 3.16723,-8.58671c0.86806,-2.27571 1.70092,-3.9649 2.49859,-5.06757c0.79767,-1.10267 1.78303,-1.654 2.95608,-1.654c1.0792,0 1.90034,0.2698 2.4634,0.8094c0.56306,0.5396 0.98536,1.34901 1.26689,2.42821c0.32845,1.31381 0.72729,3.13204 1.19651,5.45467c0.46922,2.32264 0.97363,4.90334 1.51323,7.74212c0.5396,2.83878 1.06747,5.80659 1.58361,8.90343c0.51614,3.09685 0.98536,6.05293 1.40766,8.86824c0.4223,2.81532 0.76248,5.36083 1.02055,7.63654c0.25807,2.27571 0.38711,4.02355 0.38711,5.24352c0,0.75075 -0.25807,1.34901 -0.77421,1.79476c-0.51614,0.44576 -1.17305,0.66864 -1.97072,0.66864c-0.51614,0 -1.14959,-0.19942 -1.90034,-0.59825c-0.75075,-0.39884 -1.26689,-1.20824 -1.54842,-2.42821c-0.56306,-2.67455 -1.06747,-5.44294 -1.51323,-8.30518c-0.44576,-2.86224 -0.86806,-5.75967 -1.26689,-8.69229c-0.39884,-2.93262 -0.78594,-5.86524 -1.16132,-8.79786c-0.37538,-2.93262 -0.77421,-5.85351 -1.19651,-8.76267c-0.60998,1.87688 -1.31381,3.94144 -2.11149,6.19369c-0.79767,2.25225 -1.64227,4.51623 -2.53378,6.79195c-0.89152,2.27571 -1.80649,4.51623 -2.74493,6.72157c-0.93844,2.20533 -1.85342,4.19951 -2.74493,5.98255c-0.32845,0.60998 -0.76248,1.06747 -1.30208,1.37247c-0.5396,0.30499 -1.09093,0.45749 -1.654,0.45749c-0.60998,0 -1.18478,-0.1525 -1.72438,-0.45749c-0.5396,-0.30499 -0.95017,-0.78594 -1.2317,-1.44285z" data-paper-data="{&quot;elementType&quot;:&quot;letter&quot;,&quot;baseline&quot;:70.5,&quot;baselineProportion&quot;:1,&quot;fontSize&quot;:100}"></path><path d="M268.933,308.3407c-2.62763,0 -4.73911,-0.21115 -6.33446,-0.63345c-1.59535,-0.4223 -2.82705,-1.02055 -3.6951,-1.79476c-0.86806,-0.77421 -1.45458,-1.72438 -1.75957,-2.85051c-0.30499,-1.12613 -0.52787,-2.39302 -0.66864,-3.80068c-0.14077,-1.64227 -0.24634,-3.81241 -0.31672,-6.51042c-0.07038,-2.69801 -0.10557,-5.5016 -0.10557,-8.41075c0,-1.40766 0.01173,-2.89743 0.03519,-4.46931c0.02346,-1.57188 0.04692,-3.12031 0.07038,-4.64527c0.02346,-1.52496 0.05865,-2.94435 0.10557,-4.25816c0.04692,-1.31381 0.1173,-2.43994 0.21115,-3.37838c0.14077,-1.45458 0.37538,-2.76839 0.70383,-3.94144c0.32845,-1.17305 0.95017,-2.18187 1.86515,-3.02646c0.91498,-0.84459 2.20533,-1.48977 3.87106,-1.93553c1.66573,-0.44576 3.88279,-0.66864 6.65118,-0.66864c6.28754,0 10.99146,1.16132 14.11177,3.48395c3.12031,2.32264 4.68046,5.6189 4.68046,9.8888c0,2.20533 -0.48095,4.24643 -1.44285,6.12331c-0.9619,1.87688 -2.6159,3.28453 -4.96199,4.22297c1.31381,0.23461 2.51032,0.72729 3.58953,1.47804c1.0792,0.75075 2.00591,1.654 2.78012,2.70974c0.77421,1.05574 1.36074,2.22879 1.75957,3.51914c0.39884,1.29035 0.59825,2.59244 0.59825,3.90625c0,1.68919 -0.35191,3.41357 -1.05574,5.17314c-0.70383,1.75957 -1.90034,3.36665 -3.58953,4.82123c-1.68919,1.45458 -3.92971,2.65109 -6.72157,3.58953c-2.79185,0.93844 -6.25235,1.40766 -10.38148,1.40766M283.64302,293.138c0,-1.68919 -0.38711,-3.04992 -1.16132,-4.08221c-0.77421,-1.03228 -1.7713,-1.81822 -2.99127,-2.35783c-1.21997,-0.5396 -2.58071,-0.90325 -4.08221,-1.09093c-1.5015,-0.18769 -3.003,-0.28153 -4.5045,-0.28153c-1.17305,0 -2.39302,0 -3.65991,0c-1.26689,0 -2.43994,0.02346 -3.51914,0.07038c-0.04692,0.98536 -0.09384,1.99418 -0.14077,3.02646c-0.04692,1.03228 -0.08211,2.00591 -0.10557,2.92089c-0.02346,0.91498 -0.03519,1.71265 -0.03519,2.39302c0,0.68037 0,1.16132 0,1.44285c0,1.26689 0.09384,2.32264 0.28153,3.16723c0.18769,0.84459 0.5396,1.52496 1.05574,2.0411c0.51614,0.51614 1.25516,0.87979 2.21706,1.09093c0.9619,0.21115 2.1936,0.31672 3.6951,0.31672c4.12913,0 7.31982,-0.72729 9.57207,-2.18187c2.25225,-1.45458 3.37838,-3.61299 3.37838,-6.47523M270.62218,264.70332c-1.54842,0 -2.80358,0.12904 -3.76548,0.38711c-0.9619,0.25807 -1.68919,0.59825 -2.18187,1.02055c-0.49268,0.4223 -0.82113,0.93844 -0.98536,1.54842c-0.16423,0.60998 -0.24634,1.26689 -0.24634,1.97072v9.8536c0.65691,0.04692 1.34901,0.07038 2.0763,0.07038c0.72729,0 1.41939,0 2.0763,0c1.68919,0 3.34319,-0.1173 4.96199,-0.35191c1.61881,-0.23461 3.08512,-0.63345 4.39893,-1.19651c1.31381,-0.56306 2.36956,-1.33727 3.16723,-2.32264c0.79767,-0.98536 1.19651,-2.25225 1.19651,-3.80068c0,-2.11149 -0.85633,-3.83587 -2.56898,-5.17314c-1.71265,-1.33727 -4.42239,-2.00591 -8.12922,-2.00591z" data-paper-data="{&quot;elementType&quot;:&quot;letter&quot;,&quot;baseline&quot;:71.5,&quot;baselineProportion&quot;:1,&quot;fontSize&quot;:100}"></path><path d="M305.1098,303.97696c-0.09384,-1.68919 -0.1525,-3.44876 -0.17596,-5.27872c-0.02346,-1.82995 -0.05865,-3.80068 -0.10557,-5.91216c-0.04692,-2.11149 -0.07038,-4.39893 -0.07038,-6.86233c0,-2.4634 0,-5.22006 0,-8.26999c0,-3.33146 0.02346,-6.18196 0.07038,-8.55152c0.04692,-2.36956 0.18769,-4.30509 0.4223,-5.80659c0.23461,-1.5015 0.59825,-2.60417 1.09093,-3.308c0.49268,-0.70383 1.16132,-1.05574 2.00591,-1.05574c0.4223,0 0.82113,0.04692 1.19651,0.14077c0.37538,0.09384 0.70383,0.29326 0.98536,0.59825c0.28153,0.30499 0.52787,0.75075 0.73902,1.33727c0.21115,0.58652 0.34018,1.34901 0.38711,2.28744c0.09384,1.68919 0.16423,3.19069 0.21115,4.5045c0.04692,1.31381 0.09384,2.6159 0.14077,3.90625c0.04692,1.29035 0.07038,2.62763 0.07038,4.01182c0,1.3842 0,2.94435 0,4.68046c0,2.11149 0,4.12913 0,6.05293c0,1.9238 -0.02346,3.82414 -0.07038,5.70101c-0.04692,1.87688 -0.09384,3.77721 -0.14077,5.70101c-0.04692,1.9238 -0.1173,3.94144 -0.21115,6.05293c-0.04692,1.12613 -0.16423,1.99418 -0.35191,2.60417c-0.18769,0.60998 -0.4223,1.0792 -0.70383,1.40766c-0.28153,0.32845 -0.60998,0.52787 -0.98536,0.59825c-0.37538,0.07038 -0.79767,0.10557 -1.26689,0.10557c-0.84459,0 -1.57188,-0.29326 -2.18187,-0.87979c-0.60998,-0.58652 -0.9619,-1.84169 -1.05574,-3.76548z" data-paper-data="{&quot;elementType&quot;:&quot;letter&quot;,&quot;baseline&quot;:70.2,&quot;baselineProportion&quot;:0.9943342776203965,&quot;fontSize&quot;:100}"></path><path d="M356.13739,305.03271c-1.5015,-2.06456 -2.92089,-4.1174 -4.25816,-6.1585c-1.33727,-2.0411 -2.76839,-4.28163 -4.29336,-6.72157c-1.52496,-2.43994 -3.26107,-5.14968 -5.20833,-8.12922c-1.94726,-2.97954 -4.28163,-6.46349 -7.0031,-10.45186c0,3.51914 0,6.67464 0,9.4665c0,2.79185 -0.02346,5.38429 -0.07038,7.77731c-0.04692,2.39302 -0.09384,4.64527 -0.14077,6.75676c-0.04692,2.11149 -0.1173,4.22297 -0.21115,6.33446c-0.04692,1.12613 -0.1525,1.99418 -0.31672,2.60417c-0.16423,0.60998 -0.38711,1.0792 -0.66864,1.40766c-0.28153,0.32845 -0.59825,0.52787 -0.95017,0.59825c-0.35191,0.07038 -0.76248,0.10557 -1.2317,0.10557c-0.84459,0 -1.54842,-0.29326 -2.11149,-0.87979c-0.56306,-0.58652 -0.89152,-1.84169 -0.98536,-3.76548c-0.23461,-5.16141 -0.36364,-10.33455 -0.38711,-15.51943c-0.02346,-5.18487 -0.03519,-10.5457 -0.03519,-16.08249c0,-3.14377 0.03519,-5.60717 0.10557,-7.3902c0.07038,-1.78303 0.23461,-3.12031 0.49268,-4.01182c0.25807,-0.89152 0.60998,-1.45458 1.05574,-1.68919c0.44576,-0.23461 1.04401,-0.35191 1.79476,-0.35191c0.75075,0 1.73611,0.57479 2.95608,1.72438c1.21997,1.14959 2.55724,2.66282 4.01182,4.5397c1.45458,1.87688 3.01473,4.03529 4.68046,6.47523c1.66573,2.43994 3.31973,4.95026 4.96199,7.53097c1.64227,2.58071 3.22588,5.13795 4.75084,7.67173c1.52496,2.53378 2.92089,4.83296 4.18778,6.89752c-0.04692,-2.20533 -0.07038,-4.63354 -0.07038,-7.28463c0,-2.65109 0,-5.59544 0,-8.83305c0,-3.70683 0.02346,-6.76849 0.07038,-9.18497c0.04692,-2.41648 0.17596,-4.32855 0.38711,-5.7362c0.21115,-1.40766 0.55133,-2.39302 1.02055,-2.95608c0.46922,-0.56306 1.12613,-0.84459 1.97072,-0.84459c0.79767,0 1.5015,0.25807 2.11149,0.77421c0.60998,0.51614 0.9619,1.71265 1.05574,3.58953c0.09384,1.68919 0.16423,3.19069 0.21115,4.5045c0.04692,1.31381 0.09384,2.6159 0.14077,3.90625c0.04692,1.29035 0.07038,2.62763 0.07038,4.01182c0,1.3842 0,2.94435 0,4.68046c0,2.11149 0,4.12913 0,6.05293c0,1.9238 -0.02346,3.82414 -0.07038,5.70101c-0.04692,1.87688 -0.09384,3.77721 -0.14077,5.70101c-0.04692,1.9238 -0.1173,3.94144 -0.21115,6.05293c-0.04692,1.12613 -0.1525,1.99418 -0.31672,2.60417c-0.16423,0.60998 -0.38711,1.0792 -0.66864,1.40766c-0.28153,0.32845 -0.59825,0.52787 -0.95017,0.59825c-0.35191,0.07038 -0.76248,0.10557 -1.2317,0.10557c-0.79767,0 -1.47804,-0.23461 -2.0411,-0.70383c-0.56306,-0.46922 -1.3842,-1.43112 -2.4634,-2.8857z" data-paper-data="{&quot;elementType&quot;:&quot;letter&quot;,&quot;baseline&quot;:70.2,&quot;baselineProportion&quot;:0.9943342776203965,&quot;fontSize&quot;:100}"></path><path d="M401.18243,258.50962c1.54842,0 3.14377,0.14077 4.78604,0.4223c1.64227,0.28153 3.14377,0.6921 4.5045,1.2317c1.36074,0.5396 2.48686,1.20824 3.37838,2.00591c0.89152,0.79767 1.33727,1.71265 1.33727,2.74493c0,1.0792 -0.28153,1.90034 -0.84459,2.4634c-0.56306,0.56306 -1.26689,0.84459 -2.11149,0.84459c-0.79767,0 -1.53669,-0.14077 -2.21706,-0.4223c-0.68037,-0.28153 -1.44285,-0.58652 -2.28744,-0.91498c-0.84459,-0.32845 -1.85342,-0.63345 -3.02646,-0.91498c-1.17305,-0.28153 -2.65109,-0.4223 -4.43412,-0.4223c-1.97072,0 -3.81241,0.45749 -5.52506,1.37247c-1.71265,0.91498 -3.22588,2.18187 -4.5397,3.80068c-1.31381,1.61881 -2.3461,3.53087 -3.09685,5.7362c-0.75075,2.20533 -1.12613,4.59835 -1.12613,7.17905c0,3.14377 0.39884,5.86524 1.19651,8.16441c0.79767,2.29917 1.84169,4.19951 3.13204,5.70101c1.29035,1.5015 2.74493,2.6159 4.36374,3.34319c1.61881,0.72729 3.24934,1.09093 4.89161,1.09093c2.67455,0 4.79777,-0.38711 6.36965,-1.16132c1.57188,-0.77421 2.82705,-1.7713 3.76548,-2.99127c0.04692,-0.98536 0.07038,-2.15841 0.07038,-3.51914c0,-1.36074 0,-2.83878 0,-4.43412c0,-0.60998 -0.04692,-1.09093 -0.14077,-1.44285c-0.09384,-0.35191 -0.32845,-0.62172 -0.70383,-0.8094c-0.37538,-0.18769 -0.92671,-0.30499 -1.654,-0.35191c-0.72729,-0.04692 -1.70092,-0.07038 -2.92089,-0.07038c-1.5015,0 -2.72147,-0.19942 -3.65991,-0.59825c-0.93844,-0.39884 -1.40766,-1.25516 -1.40766,-2.56898c0,-0.93844 0.24634,-1.70092 0.73902,-2.28744c0.49268,-0.58652 1.51323,-0.92671 3.06166,-1.02055c0.28153,0 0.73902,-0.01173 1.37247,-0.03519c0.63345,-0.02346 1.31381,-0.03519 2.0411,-0.03519c0.72729,0 1.44285,0 2.14668,0c0.70383,0 1.26689,0 1.68919,0c1.40766,0 2.53378,0.12904 3.37838,0.38711c0.84459,0.25807 1.59535,0.83286 2.25225,1.72438c0.32845,0.46922 0.52787,1.29035 0.59825,2.4634c0.07038,1.17305 0.10557,2.53378 0.10557,4.08221v18.15878c0,1.26689 -0.34018,2.20533 -1.02055,2.81532c-0.68037,0.60998 -1.46631,0.91498 -2.35783,0.91498c-1.0792,0 -1.95899,-0.2698 -2.63936,-0.8094c-0.68037,-0.5396 -1.02055,-1.39593 -1.02055,-2.56898v-2.74493c-1.21997,1.40766 -2.66282,2.41648 -4.32855,3.02646c-1.66573,0.60998 -3.76548,0.91498 -6.29927,0.91498c-2.58071,0 -5.11449,-0.51614 -7.60135,-1.54842c-2.48686,-1.03228 -4.69219,-2.56898 -6.61599,-4.61008c-1.9238,-2.0411 -3.48395,-4.59835 -4.68046,-7.67173c-1.19651,-3.07339 -1.79476,-6.65118 -1.79476,-10.73339c0,-4.08221 0.59825,-7.71866 1.79476,-10.90935c1.19651,-3.19069 2.82705,-5.90043 4.89161,-8.12922c2.06456,-2.22879 4.48104,-3.92971 7.24944,-5.10276c2.76839,-1.17305 5.74794,-1.75957 8.93863,-1.75957z" data-paper-data="{&quot;elementType&quot;:&quot;letter&quot;,&quot;baseline&quot;:70.8,&quot;baselineProportion&quot;:0.946524064171123,&quot;fontSize&quot;:100}"></path></g></g></g></g></g></svg>